<svg width="128" height="128" viewBox="0 0 128 128" fill="none" xmlns="http://www.w3.org/2000/svg">
<path d="M69.5725 27C69.575 25.0918 70.2125 23.2387 71.3843 21.7328C72.5562 20.2268 74.1959 19.1537 76.045 18.6825V14.9575C76.045 14.3667 76.2797 13.8001 76.6974 13.3824C77.1152 12.9647 77.6817 12.73 78.2725 12.73C78.8633 12.73 79.4299 12.9647 79.8476 13.3824C80.2653 13.8001 80.5 14.3667 80.5 14.9575V18.4575C81.6869 18.5833 82.8348 18.9537 83.8714 19.5453C84.9079 20.137 85.8106 20.937 86.5225 21.895C86.854 22.3701 86.9874 22.9557 86.8943 23.5276C86.8011 24.0994 86.4889 24.6124 86.0238 24.9579C85.5587 25.3033 84.9773 25.4539 84.4029 25.3777C83.8286 25.3016 83.3065 25.0047 82.9475 24.55C82.5664 24.0283 82.0676 23.6041 81.4915 23.3117C80.9155 23.0193 80.2785 22.8671 79.6325 22.8675H78.155C77.061 22.8675 76.0118 23.3021 75.2382 24.0757C74.4646 24.8493 74.03 25.8985 74.03 26.9925C74.03 28.0865 74.4646 29.1357 75.2382 29.9093C76.0118 30.6829 77.061 31.1175 78.155 31.1175H78.89C79.0645 31.1175 79.2384 31.1394 79.4075 31.1825C81.4026 31.415 83.253 32.3398 84.6364 33.7961C86.0199 35.2523 86.8487 37.1476 86.9787 39.152C87.1087 41.1564 86.5315 43.1429 85.3477 44.7656C84.1638 46.3883 82.4484 47.5443 80.5 48.0325V51.75C80.5 52.3408 80.2653 52.9073 79.8476 53.3251C79.4299 53.7428 78.8633 53.9775 78.2725 53.9775C77.6817 53.9775 77.1152 53.7428 76.6974 53.3251C76.2797 52.9073 76.045 52.3408 76.045 51.75V48.25C74.8567 48.1234 73.7075 47.7522 72.6698 47.1597C71.632 46.5673 70.7281 45.7664 70.015 44.8075C69.6727 44.3328 69.5308 43.7425 69.6202 43.1642C69.7096 42.5858 70.023 42.0659 70.4927 41.7167C70.9624 41.3676 71.5506 41.2173 72.1302 41.2984C72.7098 41.3795 73.2342 41.6854 73.59 42.15C73.9709 42.6743 74.4705 43.1011 75.048 43.3952C75.6255 43.6894 76.2644 43.8427 76.9125 43.8425H78.3825C79.4414 43.7903 80.4397 43.333 81.1707 42.5651C81.9016 41.7972 82.3093 40.7777 82.3093 39.7175C82.3093 38.6573 81.9016 37.6377 81.1707 36.8699C80.4397 36.102 79.4414 35.6446 78.3825 35.5925H77.6475C77.473 35.5926 77.2991 35.5708 77.13 35.5275C75.0467 35.2731 73.1284 34.2656 71.7364 32.6949C70.3443 31.1243 69.5747 29.0987 69.5725 27Z" fill="#F89400"/>
<path fill-rule="evenodd" clip-rule="evenodd" d="M24.5399 77.2499L38.8049 99.8624C41.0161 99.1102 43.3458 98.7671 45.6799 98.8499C48.4471 98.9583 51.1817 99.4868 53.7899 100.417C57.1074 101.417 59.5049 102.12 61.1899 102.62C63.9399 103.432 66.3749 104.15 68.4624 104.762C70.6542 105.444 72.9813 105.569 75.2335 105.126C77.4857 104.683 79.592 103.686 81.3624 102.225L121.012 70.5749C121.875 69.8852 122.43 68.8838 122.56 67.7874C122.626 67.2504 122.586 66.7056 122.441 66.1843C122.296 65.663 122.049 65.1755 121.715 64.7499C121.413 64.3623 121.036 64.0395 120.606 63.8007C120.177 63.5619 119.704 63.412 119.215 63.3599C117.977 63.2486 116.736 63.5435 115.68 64.1999L86.7924 81.2824C85.3127 82.6313 83.3822 83.3785 81.3799 83.3774H63.0549C62.5338 83.3774 62.034 83.1704 61.6654 82.8019C61.2969 82.4333 61.0899 81.9335 61.0899 81.4124C61.0899 80.8912 61.2969 80.3914 61.6654 80.0229C62.034 79.6544 62.5338 79.4474 63.0549 79.4474H81.3799C81.7291 79.4472 82.0769 79.4027 82.4149 79.3149L84.3749 78.1549C84.9342 77.5678 85.309 76.8295 85.4527 76.0315C85.5964 75.2335 85.5027 74.4109 85.1833 73.6656C84.8639 72.9203 84.3328 72.2851 83.6558 71.8388C82.9788 71.3925 82.1858 71.1547 81.3749 71.1549H55.5574C55.3047 71.1553 55.0543 71.1069 54.8199 71.0124C48.3666 69.0757 42.6224 68.6232 37.5874 69.6549C32.6041 70.6782 28.2766 73.1832 24.6049 77.1699L24.5399 77.2374V77.2499ZM5.40991 81.1924L17.5599 73.5274L38.1124 106.1L25.9624 113.767L5.40991 81.1924Z" fill="#5E60E7"/>
</svg>
