<svg id="Layer_1" data-name="Layer 1" xmlns="http://www.w3.org/2000/svg" viewBox="0 0 109 109">
  <defs>
    <style>
      .cls-1 {
        fill: #5e60e7;
      }

      .cls-1, .cls-2 {
        fill-rule: evenodd;
      }

      .cls-2 {
        fill: #f89400;
      }
    </style>
  </defs>
  <path class="cls-1" d="M26,61.83A24.83,24.83,0,0,0,50.84,37a2.79,2.79,0,0,0-2.79-2.79H28.83V15A2.79,2.79,0,0,0,26,12.22a24.81,24.81,0,0,0,0,49.61Z"/>
  <path class="cls-1" d="M105,102.17a2.8,2.8,0,1,1,0,5.59H10a2.8,2.8,0,0,1,0-5.59h5.85V77.58a2.79,2.79,0,0,1,2.79-2.8h16a2.79,2.79,0,0,1,2.79,2.79h0v24.59h8.47V62.74A2.79,2.79,0,0,1,48.73,60h16a2.79,2.79,0,0,1,2.79,2.79h0v39.43H76V39.71a2.79,2.79,0,0,1,2.79-2.79h16a2.79,2.79,0,0,1,2.79,2.79v62.46Z"/>
  <path class="cls-2" d="M37,1.24A24.84,24.84,0,0,1,61.83,26a2.8,2.8,0,0,1-2.8,2.8H37a2.79,2.79,0,0,1-2.79-2.79h0V4A2.79,2.79,0,0,1,37,1.24Z"/>
</svg>
