<svg id="Layer_1" data-name="Layer 1" xmlns="http://www.w3.org/2000/svg" viewBox="0 0 109 109">
  <defs>
    <style>
      .cls-1 {
        fill: #5e60e7;
      }

      .cls-2 {
        fill: #f89400;
      }
    </style>
  </defs>
  <rect class="cls-1" x="55.18" y="53.42" width="18.92" height="51.97" rx="2.01"/>
  <rect class="cls-1" x="29.18" y="67.04" width="18.92" height="38.34" rx="2.01"/>
  <rect class="cls-1" x="3.18" y="80.67" width="18.92" height="24.71" rx="2.01"/>
  <path class="cls-1" d="M105,42.27,93.26,29.68a3.6,3.6,0,0,0-2.63-1.14A3.56,3.56,0,0,0,88,29.68L76.25,42.27a3,3,0,0,0,2.18,5h2.74v56.08a2,2,0,0,0,2,2H98.08a2,2,0,0,0,2-2V47.29h2.74a3,3,0,0,0,2.18-5Z"/>
  <path class="cls-2" d="M46.18,23.14a5.28,5.28,0,0,1-5.27,5.27H38V17.86h2.93A5.29,5.29,0,0,1,46.18,23.14ZM57.31,9.08V37.19a4.69,4.69,0,0,1-4.69,4.69H10.45a4.69,4.69,0,0,1-4.69-4.69V9.08a4.69,4.69,0,0,1,4.69-4.69H52.62A4.69,4.69,0,0,1,57.31,9.08ZM30.76,29.38l-7-14.06a1.82,1.82,0,0,0-2.51-.63,1.73,1.73,0,0,0-.63.63l-7,14.06A1.76,1.76,0,1,0,16.7,31l1.86-3.71h7.2L27.62,31a1.76,1.76,0,1,0,3.14-1.57Zm18.93-6.24a8.79,8.79,0,0,0-8.78-8.79H36.22a1.76,1.76,0,0,0-1.76,1.76V30.16a1.76,1.76,0,0,0,1.76,1.76h4.69A8.78,8.78,0,0,0,49.69,23.14Zm-29.37.58H24L22.16,20Z"/>
</svg>
