<svg id="Layer_1" data-name="Layer 1" xmlns="http://www.w3.org/2000/svg" viewBox="0 0 109 109">
  <defs>
    <style>
      .cls-1 {
        fill: #f89400;
      }

      .cls-2 {
        fill: #5e60e7;
      }

      .cls-3 {
        fill: #fff;
      }
    </style>
  </defs>
  <path class="cls-1" d="M55.77,33.24H53.45q-1.11,0-1.11-.69c0-.53.41-.79,1.24-.79h.26v-5.2a1.87,1.87,0,0,1-.67.35.81.81,0,0,1-.57-.23.75.75,0,0,1-.24-.55.94.94,0,0,1,.39-.66l.66-.48.72-.58A1.44,1.44,0,0,1,55,24.1c.35,0,.53.21.53.63s0,1.12-.06,2-.06,2-.06,3.62v1.42h.38a.84.84,0,0,1,.58.21.74.74,0,0,1,.23.54.71.71,0,0,1-.23.54A.81.81,0,0,1,55.77,33.24Z"/>
  <path class="cls-1" d="M25.66,28.6a3.85,3.85,0,0,1-.46-.05,3.63,3.63,0,0,0-.44-.05H23a5.22,5.22,0,0,0-.68.05,5.51,5.51,0,0,1-.68.06l-.18,0-.19,0a.72.72,0,0,1-.72-.43,2.43,2.43,0,0,1-.11-.83A3.28,3.28,0,0,1,21,25.47a4.39,4.39,0,0,1,1.22-1.14l1.57-1a1.9,1.9,0,0,0,.93-1.53c0-.15-.13-.29-.37-.44a1.39,1.39,0,0,0-.72-.22,2.19,2.19,0,0,0-1.32.55,2.19,2.19,0,0,1-.95.56,1,1,0,0,1-.54-.15.6.6,0,0,1-.3-.53.79.79,0,0,1,.3-.61A7.47,7.47,0,0,1,22,20a3.34,3.34,0,0,1,3.41.12,1.85,1.85,0,0,1,.93,1.6,3,3,0,0,1-.46,1.69,3.92,3.92,0,0,1-1.13,1.08l-1.46.92a2.27,2.27,0,0,0-1.2,1.66c.21,0,.53-.06.95-.09.83-.05,1.43-.07,1.79-.07a2.53,2.53,0,0,1,1,.22c.41.18.61.41.61.69a.73.73,0,0,1-.22.53A.72.72,0,0,1,25.66,28.6Z"/>
  <path class="cls-1" d="M88.4,23.59a2.3,2.3,0,0,1,1.21,2.16,2.67,2.67,0,0,1-.89,2,3,3,0,0,1-2.15.84,3.79,3.79,0,0,1-1.7-.38A2.35,2.35,0,0,1,83.69,27a.75.75,0,0,1,0-.26.68.68,0,0,1,.26-.55.87.87,0,0,1,.56-.2.68.68,0,0,1,.59.3c.25.33.4.51.44.55a1.71,1.71,0,0,0,1.07.29,1.5,1.5,0,0,0,1-.34A1,1,0,0,0,88,26c0-1-.65-1.52-2-1.65-.57-.05-.86-.3-.86-.72s.22-.56.67-.71l1.26-.29a1.54,1.54,0,0,0,.6-.32.65.65,0,0,0,.2-.47c0-.59-.44-.88-1.36-.88a2,2,0,0,0-1,.35,1.9,1.9,0,0,1-.74.35.8.8,0,0,1-.8-.78c0-.34.33-.67,1-1a3.43,3.43,0,0,1,1.43-.43,3.64,3.64,0,0,1,2.14.57,2.07,2.07,0,0,1,.88,1.8,2.21,2.21,0,0,1-.25,1.1A1.66,1.66,0,0,1,88.4,23.59Z"/>
  <g>
    <circle class="cls-2" cx="23.46" cy="48.01" r="11.49"/>
    <path class="cls-2" d="M4.5,84.77H42.41a1.72,1.72,0,0,0,1.73-1.72V75A10.93,10.93,0,0,0,33.22,64.09H13.69A10.93,10.93,0,0,0,2.78,75v8A1.72,1.72,0,0,0,4.5,84.77Z"/>
  </g>
  <g>
    <circle class="cls-2" cx="86.63" cy="48.01" r="11.49"/>
    <path class="cls-2" d="M67.67,84.77h37.91a1.72,1.72,0,0,0,1.72-1.72V75A10.93,10.93,0,0,0,96.39,64.09H76.86A10.93,10.93,0,0,0,66,75v8A1.72,1.72,0,0,0,67.67,84.77Z"/>
  </g>
  <g>
    <circle class="cls-2" cx="54.46" cy="53.68" r="11.49"/>
    <g>
      <path class="cls-2" d="M35.5,90.44H73.41a1.72,1.72,0,0,0,1.73-1.72v-8A10.93,10.93,0,0,0,64.22,69.76H44.69A10.93,10.93,0,0,0,33.78,80.68v8A1.72,1.72,0,0,0,35.5,90.44Z"/>
      <path class="cls-3" d="M73.41,91.48H35.5a2.77,2.77,0,0,1-2.76-2.76v-8a12,12,0,0,1,11.95-12H64.22a12,12,0,0,1,12,12v8A2.77,2.77,0,0,1,73.41,91.48ZM44.69,70.8a9.89,9.89,0,0,0-9.87,9.88v8a.68.68,0,0,0,.68.68H73.41a.68.68,0,0,0,.69-.68v-8a9.89,9.89,0,0,0-9.88-9.88Z"/>
    </g>
  </g>
</svg>
