<svg id="Layer_1" data-name="Layer 1" xmlns="http://www.w3.org/2000/svg" viewBox="0 0 109 109">
  <defs>
    <style>
      .cls-1 {
        fill: #f89400;
      }

      .cls-2 {
        fill: #5e60e7;
      }
    </style>
  </defs>
  <g>
    <path class="cls-1" d="M89.64,107.83a18,18,0,1,1,18-17.89A17.92,17.92,0,0,1,89.64,107.83ZM87.23,91.35c-1.14-1.14-2.35-2.38-3.58-3.59s-2.9-1.41-4-.33-1.06,2.76.27,4.1q2.59,2.64,5.24,5.25c1.56,1.54,2.93,1.53,4.49,0q5-5,9.89-10a5.25,5.25,0,0,0,.71-.85,2.65,2.65,0,0,0-.46-3.33,2.58,2.58,0,0,0-3.27-.22,8.21,8.21,0,0,0-1,.89Z"/>
    <path class="cls-2" d="M69.16,101.76H5.44c-3.12-.12-4.62-2-4-5.07,3.44-16.38,17.45-30.21,34-33.45A43.76,43.76,0,0,1,72.31,72c.68.53,1.31,1.12,2,1.75A36.65,36.65,0,0,0,69.16,101.76Z"/>
    <path class="cls-2" d="M67,36.14A22.38,22.38,0,1,1,44.66,13.77,22.33,22.33,0,0,1,67,36.14Z"/>
  </g>
</svg>
