<svg xmlns="http://www.w3.org/2000/svg" viewBox="0 0 64 64"><g id="Date_and_time" data-name="Date and time"><path d="M61,7H25.223A12.984,12.984,0,1,0,7,25.223V61a1,1,0,0,0,1,1H61a1,1,0,0,0,1-1V8A1,1,0,0,0,61,7ZM60,9v8H27.847c.012-.077.016-.156.027-.234.013-.1.022-.194.033-.292A12.89,12.89,0,0,0,28,15a13.25,13.25,0,0,0-.083-1.4c-.012-.109-.024-.218-.038-.326a13.135,13.135,0,0,0-.243-1.347c-.012-.047-.027-.093-.039-.139-.1-.4-.228-.8-.369-1.2-.037-.1-.072-.2-.111-.3a12.685,12.685,0,0,0-.549-1.227c-.01-.021-.017-.043-.028-.064ZM4,15A11,11,0,0,1,23.938,8.585,11,11,0,0,1,15,26a11.3,11.3,0,0,1-1.721-.132A10.859,10.859,0,0,1,9.41,24.475c-.281-.167-.557-.343-.825-.536h0A11.039,11.039,0,0,1,4,15ZM9,60V26.54c.019.009.039.016.058.026a12.754,12.754,0,0,0,1.236.552c.1.039.2.073.3.109.394.142.793.268,1.2.37.046.012.091.027.137.039a13.233,13.233,0,0,0,1.347.243c.109.014.218.026.327.038A13.25,13.25,0,0,0,15,28a12.982,12.982,0,0,0,12.362-9H60V60Z" style="fill:#231f20"></path><path d="M18.293,19.707a1,1,0,0,0,1.414-1.414L16,14.586V8a1,1,0,0,0-2,0v7a1,1,0,0,0,.293.707Z" style="fill:#231f20"></path><path d="M29,30H25a1,1,0,0,0-1,1v4a1,1,0,0,0,1,1h4a1,1,0,0,0,1-1V31A1,1,0,0,0,29,30Zm-1,4H26V32h2Z" style="fill:#231f20"></path><path d="M37,30H33a1,1,0,0,0-1,1v4a1,1,0,0,0,1,1h4a1,1,0,0,0,1-1V31A1,1,0,0,0,37,30Zm-1,4H34V32h2Z" style="fill:#231f20"></path><path d="M45,30H41a1,1,0,0,0-1,1v4a1,1,0,0,0,1,1h4a1,1,0,0,0,1-1V31A1,1,0,0,0,45,30Zm-1,4H42V32h2Z" style="fill:#231f20"></path><path d="M53,30H49a1,1,0,0,0-1,1v4a1,1,0,0,0,1,1h4a1,1,0,0,0,1-1V31A1,1,0,0,0,53,30Zm-1,4H50V32h2Z" style="fill:#231f20"></path><path d="M21,38H17a1,1,0,0,0-1,1v4a1,1,0,0,0,1,1h4a1,1,0,0,0,1-1V39A1,1,0,0,0,21,38Zm-1,4H18V40h2Z" style="fill:#231f20"></path><path d="M29,38H25a1,1,0,0,0-1,1v4a1,1,0,0,0,1,1h4a1,1,0,0,0,1-1V39A1,1,0,0,0,29,38Zm-1,4H26V40h2Z" style="fill:#231f20"></path><path d="M37,38H33a1,1,0,0,0-1,1v4a1,1,0,0,0,1,1h4a1,1,0,0,0,1-1V39A1,1,0,0,0,37,38Zm-1,4H34V40h2Z" style="fill:#231f20"></path><path d="M45,38H41a1,1,0,0,0-1,1v4a1,1,0,0,0,1,1h4a1,1,0,0,0,1-1V39A1,1,0,0,0,45,38Zm-1,4H42V40h2Z" style="fill:#231f20"></path><path d="M53,38H49a1,1,0,0,0-1,1v4a1,1,0,0,0,1,1h4a1,1,0,0,0,1-1V39A1,1,0,0,0,53,38Zm-1,4H50V40h2Z" style="fill:#231f20"></path><path d="M21,46H17a1,1,0,0,0-1,1v4a1,1,0,0,0,1,1h4a1,1,0,0,0,1-1V47A1,1,0,0,0,21,46Zm-1,4H18V48h2Z" style="fill:#231f20"></path><path d="M29,46H25a1,1,0,0,0-1,1v4a1,1,0,0,0,1,1h4a1,1,0,0,0,1-1V47A1,1,0,0,0,29,46Zm-1,4H26V48h2Z" style="fill:#231f20"></path><path d="M37,46H33a1,1,0,0,0-1,1v4a1,1,0,0,0,1,1h4a1,1,0,0,0,1-1V47A1,1,0,0,0,37,46Zm-1,4H34V48h2Z" style="fill:#231f20"></path></g></svg>